<?xml version="1.0" encoding="utf-8"?>
<!-- Generator: Adobe Illustrator 18.1.1, SVG Export Plug-In . SVG Version: 6.00 Build 0)  -->
<svg version="1.1" id="Layer_1" xmlns="http://www.w3.org/2000/svg" xmlns:xlink="http://www.w3.org/1999/xlink" x="0px" y="0px"
	 viewBox="0 0 140 78" enable-background="new 0 0 140 78" xml:space="preserve">
<g>
	<path fill="#000000" d="M72.9,43.7c0,0,0.1,0.1,0.2,0.1c0.4,0,0.5-0.3,0.6-0.6c0.6,0.4,1.2,0.4,1.8,0c1-0.3,1.8-1.1,2.8-1.4
		c0.2-0.1,0.6-0.2,0.4-0.4c-0.6-0.9,0.2-1.1,0.6-1.6c0.4-0.5,1.1-0.6,1.5-1.1c0.2-0.2,0.6-0.5,0.4-0.7c-0.8-0.9,0.1-0.8,0.6-1
		c-0.1-0.4,0.1-0.8,0.4-1c0.1,0,0.1,0,0.2,0c0.3-0.3,0-0.9,0.4-1.2c0.8-0.5,0.2-1.5,0.6-2.1c-0.7-0.3-1-0.9-1.5-1.3
		c-0.5-0.6-0.6-0.8-0.8-1c0.1-0.1,0.3-0.1,0.4-0.2l0.1-0.1V30c-0.1-0.6,0.1-1.2-0.4-1.6c-0.1-0.1-0.1-0.1-0.2-0.1
		c0.4-0.5,0.8-1.1,1.2-1.6c0.2-0.2,0.5-0.7,0.3-0.8c-1-0.6,0.1-1,0.1-1.5c-0.2-0.2-0.5-0.4-0.4-0.7c0.3-0.9,0.1-1.5-1-1.4
		c-0.4,0-0.4-0.3-0.7-0.5c-0.9,0.3-1-0.4-1.2-1c0-0.2,0-0.5-0.3-0.5c-0.3,0.1-0.4,0.3-0.3,0.5c-0.1,0-0.2,0-0.3-0.1
		c0.4-0.4,0.4-0.8,0.2-1.3c0.3-0.5,0.6-1,0-1.7c-0.5-0.5-0.4-1.4-0.3-2.2c0,0-0.2-0.1-0.3-0.1c-1.4-0.1-2.3-0.7-2.3-2.2
		c-1.1-0.3-0.3-1.3-0.6-1.9c-0.1-0.1-0.2-0.1-0.3-0.1C75.2,9.9,75,9.6,74,9.4c-0.1,0-0.2,0-0.2,0c-0.1-0.8-0.8-1.5-0.9-2.2
		c-0.2-0.6-0.4-1.4-0.2-2.2c0-0.2,0.1-0.5-0.2-0.3c-0.8,0.3-0.6-0.3-0.7-0.6c-0.4-1.1-0.3-2.3-1.2-3.2c-0.3-0.3-0.6-0.8-1-0.8
		c-0.4,0-0.8,0.2-0.8,0.8c-0.1,0.1-0.2,0.2-0.2,0.2c-0.1,0.4,0.1,0.7,0.3,1c-0.5,0.1-1-0.3-1.3,0.4c0,0.3-0.1,0.6-0.1,0.9
		c-0.6,0.1-0.3,1-0.8,1.1c-1.3,0.2-1.4,1.2-1.4,2.2c-0.2,0-0.3,0-0.5,0.1c-0.3,0.5-0.2,1.2-0.7,1.5c-0.5,0-1,0-1.1-0.6
		c-0.9,0.3-0.7,1.7-1.8,1.8c-0.2,0.2-0.2,0.4,0,0.7c0.2,0.1,0.2,0.3,0.2,0.5c-0.2,0.3-0.3,0.6-0.2,1c0.1,0.3,0,0.5-0.1,0.8
		c-0.2,0.3-0.5,0.5-0.7,0.7s0,0.6-0.1,0.5c-0.3-0.1-0.6-0.2-1,0c0-0.5-0.3-0.9-0.7-0.7c-1,0.3-1-0.4-1.1-1c-0.1-0.2-0.2-0.3-0.4-0.1
		c-0.7,0.5-0.8,1.6-1.4,1.9c-1.2,0.8-0.6,1.5-0.4,2.4c0.1,0.2,0.1,0.4,0.1,0.7c-0.9,0.2-1.4,0.6-1.4,1.6c0,0.3-0.2,0.5-0.5,0.8
		c-0.4,0.6-1.1,0.1-1.6,0.3c-1.4,0.7-3,1.1-3.3,2.9c0,0.1-0.1,0.3-0.3,0.4c-0.5,0.4-0.6,1-0.5,1.6c0.1,0.8,0.2,1.7,0.4,2.5
		c0,0,0,0.1,0.1,0.1c-0.6-0.1-0.7,0.3-0.8,0.8c0,0.5,0,1-0.1,1.5c0,0.8,0.4,1.5,0.5,2.2c0.1,1-0.6,1.8-1.6,1.8
		c-0.2,0-0.5-0.2-0.7,0.2c0.1,0.7-0.3,1.5,0.4,2.1c0.4,0.4,0.8,0.8,0.7,1.4C46.6,38,47,38.5,47.6,39c0.5,0.5,1.2,0.9,1.7,1.4
		c1.4,0.3,1.5,1.5,1.9,2.5c0.2,0.2,0.4,0.4,0.6,0.6c0.8,0.5,1.7,1,2.8,0.7c0.2-0.1,0.5-0.3,0.7,0c0.3,0.5,0.8,0.5,1.3,0.5
		c0.6,0,1.2-0.2,1.7-0.6c0-0.1,0-0.1,0-0.1c1.1-0.4,2.3-0.7,3.4-1.2c0.1,0,0.1,0,0.2,0c0.1,0,0.2-0.1,0.3-0.1c0.6-0.2,1-0.7,1.4-1.2
		c0.2-0.1,0.3-0.2,0.4-0.4c0-0.1,0.1-0.1,0.1-0.2c-0.1,0.5-0.2,1-0.4,1.4c-1,2.5-1.7,3.5-1.8,4.4c-0.1,0.9-0.4,0.8,0.9,0.4
		c1.3-0.4,2-1,2-1s0.8-2.6,0.6-5.2c0.5,0.4,0.7,1.1,1.5,0.9c0.2,0.3,0.6,0.4,0.9,0.4c0.2,0.1,0.5,0.3,0.7,0.4c0.1,0,0.1,0,0.2,0
		c0.3,0.4,0.7,0.1,1.1,0.2c0.1,0.1,0.2,0.2,0.3,0.2c0.3,0.4,0.8,0.2,1.2,0.3C71.8,43.3,72.2,44,72.9,43.7z M59.2,18.4
		c0-0.1,0-0.2,0-0.3C59.3,18.2,59.3,18.3,59.2,18.4z M65.1,38.8L65,38.4c0-0.1,0-0.2,0.1-0.3C65.1,38.3,65.1,38.5,65.1,38.8z
		 M64.2,40.4C64.2,40.4,64.2,40.4,64.2,40.4C64.2,40.4,64.2,40.4,64.2,40.4C64.2,40.4,64.2,40.4,64.2,40.4z M65.5,29.4
		c0,0.2,0,0.4,0.1,0.7C65.5,29.9,65.5,29.6,65.5,29.4z"/>
	<path fill="#000000" d="M23.6,50.6h-4.9v18.3H9.5V50.6H0.4v18.3v4.9c0,0,0,0.1,0,0.3c0.1,1.3,0.5,2.2,1.2,2.7
		C2.2,77.4,3,77.9,4.3,78c0.2,0,0.3,0,0.3,0h4.9h9.2h9.1v-9.1V54.8C27.8,54.8,27.8,50.6,23.6,50.6z"/>
	<rect x="59.7" y="50.6" fill="#000000" width="9.1" height="27.4"/>
	<path fill="#000000" d="M100.7,59.7h9.1v-9.1h-9.1h-4.9c0,0-4.2,0-4.2,4.2v4.9v14.1c0,0,0,4.2,4.2,4.2h0.1h4.8h9.3v-9.1h-9.3V59.7z
		"/>
	<path fill="#000000" d="M53.3,50.6h-4.9c-3.1,0-4.8,0-9.2,0V36.9h-4.9c-4.2,0-4.2,4.2-4.2,4.2v9.5v9.1v9.2v9V78h18.3h4.9
		c0,0,4.2,0,4.2-4.2v-4.9v-9.2v-4.9C57.5,54.8,57.5,50.6,53.3,50.6z M48.4,68.9h-9.2v-9.2h9.2V68.9z"/>
	<path fill="#000000" d="M135.4,50.6h-4.9c-3.1,0-4.8,0-9.2,0V37h-4.9c-4.2,0-4.2,4.2-4.2,4.2v9.4v9.1V78h9.1V59.7h9.2V78h4.9
		c0,0,4.2,0,4.2-4.2V59.7v-4.9C139.6,54.8,139.6,50.6,135.4,50.6z"/>
	<path fill="#000000" d="M75.3,50.6c0,0-4.2,0-4.2,4.2v4.9V78h9.1V59.7h9.1v-9.1h-9.1H75.3z"/>
</g>
</svg>
